<svg width="1920" height="4812" viewBox="0 0 1920 4812" fill="none" xmlns="http://www.w3.org/2000/svg">
<g clip-path="url(#clip0_203_3442)">
<rect width="1920" height="4812" fill="url(#paint0_linear_203_3442)"/>
<path d="M1288.33 2991.42L1946 2946V4812H-27V3802.52C666.311 3898.78 1900.01 3984.86 1288.33 3559.19C676.653 3133.53 1033.47 3003.32 1288.33 2991.42Z" fill="white" fill-opacity="0.05"/>
<path d="M699 1590C495 1704.8 -105.833 1374.71 -292 1212.55V128.047C-292 -739.553 1377.33 -233.453 2212 128.047V949.547C2100.33 1151.55 1974.4 1517.15 1866 1555.55C1757.6 1593.95 1372 1350 1113 1350C953.5 1374 903 1475.2 699 1590Z" fill="white" fill-opacity="0.05"/>
</g>
<defs>
<linearGradient id="paint0_linear_203_3442" x1="960" y1="0" x2="960" y2="4812" gradientUnits="userSpaceOnUse">
<stop stop-color="#DCE8F4"/>
<stop offset="0.171875" stop-color="#B5CFE9"/>
<stop offset="0.5" stop-color="#94B7DB"/>
<stop offset="0.661458" stop-color="#79A4CF"/>
<stop offset="0.833333" stop-color="#598DC1"/>
<stop offset="1" stop-color="#3573B1"/>
</linearGradient>
<clipPath id="clip0_203_3442">
<rect width="1920" height="4812" fill="white"/>
</clipPath>
</defs>
</svg>
