<svg width="285" height="521" viewBox="0 0 285 521" fill="none" xmlns="http://www.w3.org/2000/svg">
<g filter="url(#filter0_i_325_374)">
<rect x="7" y="12.0179" width="270.96" height="500.982" rx="37.4518" fill="#B5CFE9"/>
</g>
<g filter="url(#filter1_f_325_374)">
<rect x="8.94195" y="13.9599" width="267.076" height="497.098" rx="35.5099" stroke="#00A3FF" stroke-width="3.88389"/>
</g>
<g filter="url(#filter2_d_325_374)">
<rect x="8.94195" y="13.9599" width="267.076" height="497.098" rx="35.5099" stroke="#3573B1" stroke-width="3.88389" shape-rendering="crispEdges"/>
</g>
<path d="M20.8013 12.6568C17.2503 13.2312 17.6964 19.9542 15.2402 22.6128C12.7783 25.2769 7.03178 18.7069 4.15853 20.9607C1.29107 23.209 12.3669 27.8315 11.6718 31.1028C10.9824 34.374 4.50608 37.8148 6.36558 41.1517C8.21929 44.4887 14.8579 35.4408 17.7253 36.1574C20.5928 36.874 23.2459 44.806 26.9359 43.3782C30.6318 41.956 23.7152 34.7131 25.5051 31.5513C27.3009 28.3894 36.0886 27.0985 35.0575 24.5822C34.0264 22.0713 25.0765 26.0044 23.6109 23.8819C22.5508 22.3502 22.9331 12.3122 20.8013 12.6568Z" fill="#5691CB"/>
<path d="M17.3836 35.4733C17.5632 35.4733 17.7312 35.4897 17.8991 35.5335C19.3184 35.8891 20.5233 37.4809 21.7978 39.1713C23.6747 41.6657 25.1286 43.3834 26.6811 42.7817C27.0692 42.6285 27.1967 42.4261 27.2604 42.2839C27.6485 41.4032 26.8433 39.5816 26.0613 37.8201C25.007 35.4405 23.9179 32.9788 24.9027 31.2447C25.8527 29.5708 28.2857 28.4767 30.6434 27.4209C32.5608 26.5621 34.7331 25.5884 34.4203 24.8171C34.0901 24.0129 31.3617 24.4451 29.369 24.7623C26.6 25.2 23.9932 25.6158 23.0374 24.2318C22.5566 23.5316 22.3712 21.9233 22.1106 19.3577C21.9078 17.3829 21.5371 13.7287 20.8825 13.2965C19.2547 13.5865 18.6233 15.7855 17.9455 18.1159C17.4184 19.943 16.8738 21.8248 15.7558 23.0392C14.157 24.7733 11.6545 23.5479 9.4532 22.4703C7.58791 21.5622 5.6647 20.6213 4.59881 21.4528C4.39607 21.6114 4.3671 21.7318 4.3671 21.8248C4.3671 22.6344 6.29035 24.1606 7.83703 25.3914C10.2526 27.3061 12.7551 29.2864 12.3439 31.2284C12.031 32.7218 10.7103 34.1713 9.43583 35.5717C7.70957 37.4645 6.0818 39.2587 6.96811 40.8506C7.1361 41.146 7.29829 41.2117 7.41994 41.2335C8.35838 41.4031 10.3917 39.8004 12.0252 38.5094C13.9948 36.9503 15.8601 35.4733 17.3836 35.4733ZM26.0323 44.204C23.9121 44.204 22.209 41.9502 20.6797 39.9207C19.6022 38.4929 18.49 37.016 17.5458 36.7808C16.6363 36.551 14.5625 38.1866 12.9058 39.4995C10.7624 41.1953 8.74067 42.8036 7.15343 42.5027C6.74214 42.4261 6.16288 42.1799 5.75738 41.4524C4.44241 39.0782 6.53939 36.7698 8.39889 34.7294C9.55746 33.4548 10.7566 32.1364 10.9999 30.9766C11.2548 29.7841 8.86815 27.8968 6.95651 26.3815C4.83054 24.6912 2.99422 23.2362 3.00001 21.8194C3.00001 21.4583 3.12746 20.9277 3.72412 20.4627C5.48514 19.0787 7.92967 20.2712 10.0788 21.3215C12.3438 22.432 13.8905 23.0884 14.7247 22.1913C15.6342 21.2012 16.1381 19.4616 16.6247 17.7768C17.3894 15.1455 18.1714 12.4212 20.6855 12.0164C21.0505 11.9617 21.3981 12.0438 21.6993 12.2626C22.771 13.0339 23.0837 15.4135 23.4719 19.2318C23.6457 20.9386 23.86 23.0611 24.1844 23.5261C24.6478 24.1989 27.243 23.7887 29.1373 23.4878C32.1322 23.0119 34.9649 22.5633 35.6948 24.3521C36.471 26.2393 33.9222 27.3826 31.2285 28.5916C29.1778 29.5106 26.8491 30.5555 26.1076 31.8575C25.4356 33.0445 26.4378 35.3146 27.3241 37.3222C28.2568 39.4174 29.1315 41.3977 28.5232 42.7817C28.2857 43.3287 27.8339 43.7336 27.1967 43.9797C26.7969 44.1329 26.4031 44.204 26.0323 44.204Z" fill="#8CD2DA"/>
<path d="M268.801 0.656582C265.25 1.23097 265.696 7.95403 263.24 10.6126C260.778 13.2767 255.032 6.70672 252.158 8.9605C249.291 11.2088 260.367 15.8313 259.672 19.1025C258.982 22.3738 252.506 25.8146 254.365 29.1515C256.219 32.4884 262.858 23.4406 265.725 24.1572C268.593 24.8738 271.246 32.8058 274.936 31.378C278.632 29.9557 271.715 22.7129 273.505 19.5511C275.301 16.3892 284.089 15.0983 283.057 12.5819C282.026 10.071 273.076 14.0042 271.611 11.8817C270.551 10.35 270.933 0.311951 268.801 0.656582Z" fill="#5691CB"/>
<path d="M265.384 23.4733C265.563 23.4733 265.731 23.4897 265.899 23.5335C267.318 23.889 268.523 25.4809 269.798 27.1712C271.675 29.6657 273.129 31.3834 274.681 30.7817C275.069 30.6285 275.197 30.4261 275.26 30.2839C275.649 29.4032 274.843 27.5815 274.061 25.8201C273.007 23.4405 271.918 20.9788 272.903 19.2447C273.853 17.5708 276.286 16.4767 278.643 15.4209C280.561 14.562 282.733 13.5883 282.42 12.817C282.09 12.0129 279.362 12.445 277.369 12.7623C274.6 13.1999 271.993 13.6157 271.037 12.2317C270.557 11.5315 270.371 9.92327 270.111 7.35768C269.908 5.38288 269.537 1.72865 268.882 1.29649C267.255 1.58642 266.623 3.78548 265.946 6.11585C265.418 7.94294 264.874 9.82474 263.756 11.0392C262.157 12.7733 259.654 11.5479 257.453 10.4702C255.588 9.56214 253.665 8.62127 252.599 9.45276C252.396 9.6114 252.367 9.73179 252.367 9.82478C252.367 10.6344 254.29 12.1606 255.837 13.3914C258.253 15.306 260.755 17.2864 260.344 19.2283C260.031 20.7217 258.71 22.1713 257.436 23.5717C255.71 25.4644 254.082 27.2587 254.968 28.8506C255.136 29.146 255.298 29.2116 255.42 29.2335C256.358 29.4031 258.392 27.8003 260.025 26.5093C261.995 24.9503 263.86 23.4733 265.384 23.4733ZM274.032 32.2039C271.912 32.2039 270.209 29.9501 268.68 27.9206C267.602 26.4929 266.49 25.016 265.546 24.7807C264.636 24.551 262.563 26.1866 260.906 27.4995C258.762 29.1953 256.741 30.8036 255.153 30.5027C254.742 30.4261 254.163 30.1799 253.757 29.4523C252.442 27.0782 254.539 24.7698 256.399 22.7294C257.557 21.4548 258.757 20.1363 259 18.9766C259.255 17.7841 256.868 15.8968 254.957 14.3815C252.831 12.6912 250.994 11.2362 251 9.81933C251 9.45829 251.127 8.92763 251.724 8.46265C253.485 7.07865 255.93 8.27114 258.079 9.32145C260.344 10.4319 261.891 11.0884 262.725 10.1913C263.634 9.20112 264.138 7.46159 264.625 5.77673C265.389 3.14549 266.171 0.421215 268.686 0.0164108C269.05 -0.0382919 269.398 0.0437622 269.699 0.262575C270.771 1.03389 271.084 3.41352 271.472 7.23182C271.646 8.93857 271.86 11.0611 272.184 11.526C272.648 12.1989 275.243 11.7887 277.137 11.4878C280.132 11.0119 282.965 10.5632 283.695 12.352C284.471 14.2393 281.922 15.3826 279.229 16.5916C277.178 17.5106 274.849 18.5555 274.108 19.8574C273.436 21.0445 274.438 23.3146 275.324 25.3222C276.257 27.4174 277.131 29.3977 276.523 30.7817C276.286 31.3287 275.834 31.7335 275.197 31.9797C274.797 32.1329 274.403 32.2039 274.032 32.2039Z" fill="#8CD2DA"/>
<defs>
<filter id="filter0_i_325_374" x="7" y="12.0179" width="277.34" height="507.917" filterUnits="userSpaceOnUse" color-interpolation-filters="sRGB">
<feFlood flood-opacity="0" result="BackgroundImageFix"/>
<feBlend mode="normal" in="SourceGraphic" in2="BackgroundImageFix" result="shape"/>
<feColorMatrix in="SourceAlpha" type="matrix" values="0 0 0 0 0 0 0 0 0 0 0 0 0 0 0 0 0 0 127 0" result="hardAlpha"/>
<feMorphology radius="1.94195" operator="dilate" in="SourceAlpha" result="effect1_innerShadow_325_374"/>
<feOffset dx="6.38068" dy="6.93553"/>
<feGaussianBlur stdDeviation="4.71616"/>
<feComposite in2="hardAlpha" operator="arithmetic" k2="-1" k3="1"/>
<feColorMatrix type="matrix" values="0 0 0 0 0 0 0 0 0 0 0 0 0 0 0 0 0 0 1 0"/>
<feBlend mode="normal" in2="shape" result="effect1_innerShadow_325_374"/>
</filter>
<filter id="filter1_f_325_374" x="0.896737" y="5.91468" width="283.166" height="513.188" filterUnits="userSpaceOnUse" color-interpolation-filters="sRGB">
<feFlood flood-opacity="0" result="BackgroundImageFix"/>
<feBlend mode="normal" in="SourceGraphic" in2="BackgroundImageFix" result="shape"/>
<feGaussianBlur stdDeviation="3.05163" result="effect1_foregroundBlur_325_374"/>
</filter>
<filter id="filter2_d_325_374" x="3" y="12.0179" width="278.96" height="508.982" filterUnits="userSpaceOnUse" color-interpolation-filters="sRGB">
<feFlood flood-opacity="0" result="BackgroundImageFix"/>
<feColorMatrix in="SourceAlpha" type="matrix" values="0 0 0 0 0 0 0 0 0 0 0 0 0 0 0 0 0 0 127 0" result="hardAlpha"/>
<feOffset dy="4"/>
<feGaussianBlur stdDeviation="2"/>
<feComposite in2="hardAlpha" operator="out"/>
<feColorMatrix type="matrix" values="0 0 0 0 0 0 0 0 0 0 0 0 0 0 0 0 0 0 0.25 0"/>
<feBlend mode="normal" in2="BackgroundImageFix" result="effect1_dropShadow_325_374"/>
<feBlend mode="normal" in="SourceGraphic" in2="effect1_dropShadow_325_374" result="shape"/>
</filter>
</defs>
</svg>
