<svg width="285" height="194" viewBox="0 0 285 194" fill="none" xmlns="http://www.w3.org/2000/svg">
<g filter="url(#filter0_i_325_324)">
<rect x="7" y="37.4714" width="270.96" height="148.529" rx="37.4518" fill="#B5CFE9"/>
</g>
<g filter="url(#filter1_f_325_324)">
<rect x="8.94195" y="39.4134" width="267.076" height="144.645" rx="35.5099" stroke="#00A3FF" stroke-width="3.88389"/>
</g>
<g filter="url(#filter2_d_325_324)">
<rect x="8.94195" y="39.4134" width="267.076" height="144.645" rx="35.5099" stroke="#3573B1" stroke-width="3.88389" shape-rendering="crispEdges"/>
</g>
<g filter="url(#filter3_d_325_324)">
<path d="M135.479 27.5021L132.797 29.4534C135.41 29.1162 141.072 28.5387 142.82 28.9253C152.941 29.919 157.647 35.5483 158.734 38.2387C159.099 37.4824 161.213 36.1085 163.391 36.4061C162.111 33.8462 162.462 32.7184 155.801 28.4824C149.14 24.2464 136.392 25.6113 136.223 26.3609C136.089 26.9606 135.671 27.3716 135.479 27.5021Z" fill="#4A99B6" stroke="#E6F7FF" stroke-width="0.264165"/>
<path d="M137.235 27.0701C136.769 27.2348 135.515 28.4306 134.946 29.0079C142.195 28.0167 149.957 30.1694 152.178 31.5814C155.539 32.9545 157.94 36.344 158.72 37.8671C159.039 37.6083 159.752 37.0508 160.061 36.8915C160.448 36.6924 158.907 32.4676 156.251 29.9547C150.581 25.8708 137.818 26.8643 137.235 27.0701Z" fill="#495F7F" stroke="#9A90A1" stroke-width="0.264165"/>
<path d="M140.009 28.4589C116.865 27.8642 114.227 44.5658 115.802 52.991C115.277 52.991 114.149 53.6601 113.834 56.3363C113.44 59.6816 116.983 62.4693 122.69 64.5137C130.365 67.2629 138.238 67.6731 149.456 66.3722C160.674 65.0712 161.067 63.0269 164.019 59.6816C168.039 55.1263 164.806 29.0961 140.009 28.4589Z" fill="url(#paint0_linear_325_324)" stroke="#6CA5D7" stroke-width="0.52833"/>
<path d="M128.398 36.0788C128.712 40.0932 134.892 39.9817 137.451 39.0524C137.844 38.9094 138.699 41.5273 138.435 42.026C138.041 42.7694 136.663 43.5128 137.451 46.4864C130.562 45.743 127.02 48.9024 124.658 52.0619C122.297 55.2213 124.461 57.0798 125.839 58.9383C127.217 60.7968 130.169 62.0977 135.286 63.2128C140.403 64.3279 146.504 63.3987 149.062 62.4694C151.621 61.5402 154.846 60.2094 155.95 57.0798C157.131 53.7345 154.376 45.743 153.392 44.9996C156.934 39.9817 153.589 36.0788 152.998 35.1496C152.408 34.2203 147.488 32.9194 146.504 32.9194C145.52 32.9194 140.796 33.1052 139.615 35.1496C135.089 32.176 128.988 33.8486 128.398 36.0788Z" fill="url(#paint1_linear_325_324)" stroke="#5691CB" stroke-opacity="0.7" stroke-width="0.264165"/>
<path d="M146.504 30.6891C145.401 30.5405 144.732 30.5581 144.732 31.2467C144.732 31.6184 146.906 33.0855 148.472 34.0344C150.613 35.3321 153.392 36.2646 154.376 36.6363C155.36 37.008 155.163 35.8929 154.966 35.5212C153.589 32.9193 147.881 30.875 146.504 30.6891Z" fill="#F6F6F6"/>
<path d="M119.541 38.309C117.652 40.5392 116.261 44.9376 115.802 46.8581C116.064 45.1854 116.825 41.3198 117.77 39.2383C118.951 36.6364 121.903 34.0345 123.477 32.7335C129.185 28.8307 135.089 28.6448 138.435 28.6448C142.911 28.6448 148.275 29.9458 149.652 30.875C146.504 29.9458 142.371 29.185 137.647 29.3882C134.138 29.5392 130.956 29.9458 128.791 30.875C127.61 31.0609 123.674 33.2911 123.871 33.2911C124.068 33.2911 126.036 33.2911 126.233 33.1052C126.429 32.9194 127.217 32.176 128.594 32.176C130.641 32.3247 129.185 33.7247 128.201 34.4062C128.201 34.7779 128.397 35.7071 127.217 37.7515C126.036 39.7958 122.887 41.0967 121.903 40.9109C120.513 40.6484 119.541 40.3534 119.541 38.309Z" fill="#F7F8F8" stroke="#E5F4F6" stroke-width="0.052833"/>
<g filter="url(#filter4_i_325_324)">
<path d="M143.945 44.8137C138.749 45.7058 139.156 52.6194 140.009 55.9647C139.419 56.894 147.094 57.0798 147.881 57.2656C148.668 57.4515 150.833 55.9647 150.046 55.4072C149.259 54.8496 149.849 44.442 143.945 44.8137Z" fill="#78B2E4"/>
</g>
<path d="M143.945 44.8137C138.749 45.7058 139.156 52.6194 140.009 55.9647C139.419 56.894 147.094 57.0798 147.881 57.2656C148.668 57.4515 150.833 55.9647 150.046 55.4072C149.259 54.8496 149.849 44.442 143.945 44.8137Z" stroke="#5690BF" stroke-width="0.52833"/>
<path d="M143.158 45.3713C139.064 47.0068 139.681 55.4072 140.599 55.7789C141.977 56.3364 144.989 56.7634 147.291 55.593C149.849 54.2921 147.291 44.6279 143.158 45.3713Z" fill="#CBE1EE"/>
<path d="M143.748 46.3005C143.748 46.1518 143.355 45.7429 143.158 45.5571C142.056 45.7057 141.255 47.1058 140.993 47.7873C140.993 48.2829 141.111 49.2369 141.583 49.0882C142.174 48.9024 143.748 46.4863 143.748 46.3005Z" fill="#F4F4F4"/>
<g filter="url(#filter5_i_325_324)">
<path d="M120.919 43.8844C125.485 45.5199 123.215 51.876 121.509 54.8496C121.312 55.1927 121.509 55.593 119.344 55.7788C113.243 53.7345 117.967 42.3977 120.919 43.8844Z" fill="#79B0DF"/>
</g>
<path d="M120.919 43.8844C125.485 45.5199 123.215 51.876 121.509 54.8496C121.312 55.1927 121.509 55.593 119.344 55.7788C113.243 53.7345 117.967 42.3977 120.919 43.8844Z" stroke="#5690BF" stroke-width="0.52833"/>
<path d="M120.722 44.442C122.769 44.8881 123.693 47.4393 123.281 49.6458C122.69 52.8052 121.669 56.7168 119.148 55.4071C115.212 53.3628 118.164 43.8845 120.722 44.442Z" fill="#CBE1EE"/>
<path d="M121.509 46.858C121.509 47.1554 120.197 48.7165 119.541 49.4599C118.557 48.7165 119.738 46.1146 120.525 45.9288C121.312 45.7429 121.509 46.4863 121.509 46.858Z" fill="#F4F4F4"/>
<path d="M149.199 51.8606C149.359 53.1615 148.959 56.0236 146.08 57.0644" stroke="#5690BF" stroke-width="0.264165" stroke-linecap="round"/>
<path d="M116.363 50.7454C116.72 52.0538 118.284 55.3352 119.315 55.7634" stroke="#5690BF" stroke-width="0.264165"/>
<path d="M124.825 44.4266C125.219 44.7983 126.006 45.5788 126.006 45.7275C126.006 45.8762 126.137 46.5329 126.203 46.8426" stroke="#558EBC" stroke-width="0.211332"/>
<path d="M137.421 46.4709C137.683 45.8514 138.405 44.5753 139.192 44.4266" stroke="#558EBC" stroke-width="0.211332"/>
<path d="M117.544 33.8618C118.803 27.9146 124.497 24.1976 127.187 23.0825H124.629C124.432 23.0825 124.235 22.525 124.038 22.7108C123.841 22.8967 120.496 25.4986 118.331 27.5429C116.599 29.1784 114.067 35.4438 113.411 37.7359C114.067 37.0544 116.441 34.3078 117.544 33.8618Z" fill="#E3E6DF" stroke="#CECECE" stroke-width="0.52833"/>
<path d="M111.246 39.0655C111.561 38.4708 113.214 37.207 114.001 36.6495C114.473 36.9468 113.017 45.0746 112.23 49.1014C112.82 51.4555 113.647 56.2008 112.23 56.3495C110.459 56.5354 108.687 52.2608 108.687 51.1457C108.687 50.0306 108.884 48.9155 108.884 47.4287C108.884 45.9419 110.852 39.8089 111.246 39.0655Z" fill="#B8B6B4" stroke="black" stroke-width="0.264165"/>
<g filter="url(#filter6_i_325_324)">
<path d="M114.198 36.8353C117.189 32.9697 120.496 33.1516 121.873 33.4613C120.102 35.1339 120.968 34.2654 118.921 36.6207C116.756 39.7514 115.641 45.6297 115.379 47.9576C115.444 49.4444 115.418 51.8976 115.576 52.7896C113.607 54.4623 113.804 55.3915 113.804 56.8783C112.427 57.8076 112.427 56.3495 112.23 56.3495C112.033 56.3495 111.049 54.6769 110.655 54.1193C110.065 53.5618 110.065 50.4023 110.065 49.2873C110.065 48.1722 110.459 41.6674 114.198 36.8353Z" fill="url(#paint2_linear_325_324)"/>
</g>
<path d="M126.4 20.6664C126.557 20.0717 125.941 13.1086 125.613 9.70131H126.006C126.203 9.57742 126.597 9.29245 126.597 9.14377C126.597 8.95792 126.597 8.40037 127.187 8.77207C128.762 9.70131 133.091 13.4183 134.075 14.1617C134.863 14.7564 135.322 16.0202 135.453 16.5777C132.37 18.1884 126.242 21.2611 126.4 20.6664Z" fill="#F1F1F6" stroke="#9A90A1" stroke-width="0.52833"/>
<path d="M162.809 34.6053C163.596 34.3079 166.811 34.6053 168.32 34.7911C169.828 42.1012 172.019 57.3161 168.713 59.695C164.58 62.6685 160.25 61.5534 159.857 61.1817C159.463 61.1817 154.937 56.3497 156.118 46.4996C157.294 36.6877 161.79 34.99 162.797 34.6096L162.809 34.6053Z" fill="url(#paint3_linear_325_324)"/>
<path d="M170.681 36.4637C172.098 36.7611 173.502 39.3134 174.027 40.5524L172.649 57.4647C172.518 58.4559 171.311 60.1409 167.532 58.9515C162.809 57.4647 163.203 53.9336 162.809 49.1015C162.415 44.2694 163.203 42.7826 164.383 39.4373C165.564 36.092 168.91 36.092 170.681 36.4637Z" fill="#B6B4B4"/>
<path d="M168.319 38.1364C169.107 35.0141 164.711 28.658 162.415 25.8703C162.087 24.8172 162.258 23.2684 165.564 25.4986C169.697 28.2863 170.878 35.9062 170.878 37.2071C170.878 38.2479 171.665 38.7559 172.059 38.8798C172.912 39.3134 174.735 40.4781 175.208 41.6675C175.798 43.1543 176.782 49.1015 176.388 51.3317C175.995 53.5619 175.208 56.1638 172.256 58.0223C167.926 58.394 167.335 57.8364 165.958 56.1638C164.58 54.4911 164.58 48.9156 164.58 47.6147C164.423 46.4253 165.433 42.1631 165.958 40.1807C166.023 39.6851 166.587 38.5824 168.319 38.1364Z" fill="#F2F3F5" stroke="#9E95A7" stroke-width="0.52833"/>
<path d="M174.629 43.0464C173.514 41.9313 170.811 40.2958 168.922 42.6747C167.033 45.0536 167.216 49.1175 167.544 50.8521C167.807 52.3389 168.804 55.201 170.693 54.7549C173.055 54.1974 174.236 54.7549 175.023 51.2238C175.81 47.6926 174.236 44.9049 172.858 44.5332C171.48 44.1615 169.709 43.9757 168.922 47.8785C168.292 51.0008 169.84 51.9052 170.693 51.9672C171.48 52.0911 173.133 52.1902 173.448 51.5955C174.039 51.2238 174.629 51.0379 174.629 48.9936C174.629 46.9492 171.48 46.02 171.087 46.7634" stroke="#9A90A1" stroke-width="0.264165"/>
<path d="M168.319 38.1075C168.779 38.6031 169.697 39.7802 169.697 40.5236" stroke="#9A90A1" stroke-width="0.52833"/>
<path d="M161.825 26.4278L157.889 23.4542C159.398 22.6488 162.494 21.0381 162.809 21.0381C163.203 21.0381 164.777 22.7108 167.139 24.941C166.351 26.4278 163.268 26.5517 161.825 26.4278Z" fill="#F2F3F5" stroke="#9A90A1" stroke-width="0.52833"/>
<path d="M162.612 20.8523C154.425 13.4184 141.095 14.6574 135.453 16.2061L139.192 16.7637L146.868 17.8787L151.197 20.1089L155.133 22.1533L158.676 22.8967H162.022C162.809 22.8967 163.006 21.5957 162.612 20.8523Z" fill="#B4DDEF" stroke="#9E95A7" stroke-width="0.52833"/>
<path d="M135.65 16.2061C130.68 17.3793 126.269 20.2328 124.038 21.9674V22.3391C124.169 22.5249 124.471 22.9338 124.629 23.0825C124.825 23.2683 129.745 22.8966 130.336 22.7108C130.729 21.9674 135.256 20.2947 135.453 20.1089C135.65 19.9231 136.413 19.3884 137.224 18.6221C138.602 17.3212 143.172 17.5938 145.49 18.2504C147.458 18.808 151.197 20.6293 151.985 21.224C152.969 21.9674 154.346 22.8966 155.133 22.8966C155.921 22.8966 159.857 23.64 160.054 23.64C160.25 23.64 162.612 22.7108 161.628 22.7108C160.644 22.7108 155.33 21.4098 154.346 21.4098C153.362 21.4098 152.181 19.3655 151.985 19.1797C151.788 18.9938 151.17 18.5777 150.607 18.2504C149.464 17.586 148.751 17.2887 147.458 16.9495C143.915 16.0202 141.947 14.7193 135.65 16.2061Z" fill="#C0CDD1" stroke="#9E95A7" stroke-width="0.52833"/>
<path d="M126.597 9.32977L126.006 9.70147C126.597 11.6839 127.817 15.7602 127.974 16.2062C128.132 16.6522 128.302 16.6399 128.368 16.5779C128.63 16.516 129.195 16.3549 129.352 16.2062C129.509 16.0575 129.418 15.7726 129.352 15.6487L126.597 9.32977Z" fill="url(#paint4_linear_325_324)" stroke="#9E95A7" stroke-width="0.264165"/>
<path d="M150.41 17.3212C149.78 16.2805 153.297 10.8165 155.134 8.2146C155.264 8.02875 155.134 7.8429 155.724 8.2146C156.196 8.51196 156.708 8.3385 156.905 8.2146L157.298 8.5863C158.348 12.2413 160.447 19.5886 160.447 19.7373C160.447 19.9231 160.644 20.8524 159.66 21.4099C158.676 21.9675 156.314 21.2241 155.921 20.8524C155.527 20.4807 155.921 20.6665 155.724 20.4807C155.567 20.332 153.165 18.808 151.985 18.0646C151.722 18.2505 151.04 18.362 150.41 17.3212Z" fill="url(#paint5_linear_325_324)" stroke="#9A90A1" stroke-width="0.52833"/>
<path d="M156.708 8.58624L155.527 8.40039C155.37 8.84643 153.756 15.091 153.756 16.3919C153.756 16.4977 154.661 16.8008 155.133 16.9495C155.606 17.0981 155.724 16.6397 155.724 16.3919L156.708 8.58624Z" fill="url(#paint6_linear_325_324)" stroke="#9F99AB" stroke-width="0.264165"/>
<path d="M151.985 18.0358L152.378 17.4782L156.118 19.7084L155.724 20.4518" stroke="#9A90A1" stroke-width="0.52833"/>
<path d="M128.368 18.9651V18.2217L132.304 16.3632L133.288 16.7349" stroke="#9A90A1" stroke-width="0.52833"/>
<path d="M124.825 22.8679C127.581 21.0094 133.997 17.2181 137.618 16.9207C142.144 16.549 148.442 16.7349 152.181 21.0094" stroke="#9A90A1" stroke-width="0.52833"/>
<path d="M170.287 48.1434C171.272 48.2673 173.279 48.478 173.436 48.3293" stroke="#9A90A1" stroke-width="0.264165"/>
<path d="M170.287 50.3737C171.206 50.4976 173.121 50.671 173.436 50.3737" stroke="#9A90A1" stroke-width="0.264165"/>
</g>
<path d="M24.8013 27.7839C21.2503 28.3583 21.6964 35.0814 19.2402 37.74C16.7783 40.404 11.0318 33.8341 8.15853 36.0879C5.29107 38.3362 16.3669 42.9586 15.6718 46.2299C14.9824 49.5012 8.50608 52.942 10.3656 56.2789C12.2193 59.6158 18.8579 50.5679 21.7253 51.2845C24.5928 52.0011 27.2459 59.9331 30.9359 58.5054C34.6318 57.0831 27.7152 49.8403 29.5051 46.6784C31.3009 43.5166 40.0886 42.2256 39.0575 39.7093C38.0264 37.1984 29.0765 41.1315 27.6109 39.009C26.5508 37.4773 26.9331 27.4393 24.8013 27.7839Z" fill="#5691CB"/>
<path d="M21.3836 50.6005C21.5632 50.6005 21.7312 50.6169 21.8991 50.6606C23.3184 51.0162 24.5233 52.6081 25.7978 54.2984C27.6747 56.7929 29.1286 58.5106 30.6811 57.9088C31.0692 57.7557 31.1967 57.5533 31.2604 57.411C31.6485 56.5303 30.8433 54.7087 30.0613 52.9473C29.007 50.5677 27.9179 48.1059 28.9027 46.3718C29.8527 44.6979 32.2857 43.6038 34.6434 42.548C36.5608 41.6892 38.7331 40.7155 38.4203 39.9442C38.0901 39.14 35.3617 39.5722 33.369 39.8895C30.6 40.3271 27.9932 40.7429 27.0374 39.3589C26.5566 38.6587 26.3712 37.0504 26.1106 34.4848C25.9078 32.51 25.5371 28.8558 24.8825 28.4237C23.2547 28.7136 22.6233 30.9126 21.9455 33.243C21.4184 35.0701 20.8738 36.9519 19.7558 38.1663C18.157 39.9004 15.6545 38.675 13.4532 37.5974C11.5879 36.6893 9.6647 35.7484 8.59881 36.5799C8.39607 36.7386 8.3671 36.859 8.3671 36.952C8.3671 37.7616 10.2903 39.2877 11.837 40.5186C14.2526 42.4332 16.7551 44.4135 16.3439 46.3555C16.031 47.8489 14.7103 49.2985 13.4358 50.6989C11.7096 52.5916 10.0818 54.3859 10.9681 55.9778C11.1361 56.2731 11.2983 56.3388 11.4199 56.3607C12.3584 56.5303 14.3917 54.9275 16.0252 53.6365C17.9948 52.0775 19.8601 50.6005 21.3836 50.6005ZM30.0323 59.3311C27.9121 59.3311 26.209 57.0773 24.6797 55.0478C23.6022 53.62 22.49 52.1431 21.5458 51.9079C20.6363 51.6781 18.5625 53.3137 16.9058 54.6266C14.7624 56.3224 12.7407 57.9307 11.1534 57.6299C10.7421 57.5533 10.1629 57.307 9.75738 56.5795C8.44241 54.2054 10.5394 51.897 12.3989 49.8565C13.5575 48.5819 14.7566 47.2635 14.9999 46.1038C15.2548 44.9112 12.8681 43.024 10.9565 41.5087C8.83054 39.8183 6.99422 38.3633 7.00001 36.9465C7.00001 36.5855 7.12746 36.0548 7.72412 35.5898C9.48514 34.2058 11.9297 35.3983 14.0788 36.4486C16.3438 37.5591 17.8905 38.2156 18.7247 37.3184C19.6342 36.3283 20.1381 34.5888 20.6247 32.9039C21.3894 30.2727 22.1714 27.5484 24.6855 27.1436C25.0505 27.0889 25.3981 27.1709 25.6993 27.3897C26.771 28.1611 27.0837 30.5407 27.4719 34.359C27.6457 36.0657 27.86 38.1882 28.1844 38.6532C28.6478 39.3261 31.243 38.9158 33.1373 38.615C36.1322 38.139 38.9649 37.6904 39.6948 39.4792C40.471 41.3665 37.9222 42.5098 35.2285 43.7187C33.1778 44.6377 30.8491 45.6826 30.1076 46.9846C29.4356 48.1717 30.4378 50.4418 31.3241 52.4494C32.2568 54.5445 33.1315 56.5248 32.5232 57.9088C32.2857 58.4559 31.8339 58.8607 31.1967 59.1069C30.7969 59.26 30.4031 59.3311 30.0323 59.3311Z" fill="#8CD2DA"/>
<path d="M268.479 30.321C264.928 30.8954 265.374 37.6184 262.918 40.277C260.456 42.9411 254.709 36.3711 251.836 38.6249C248.969 40.8732 260.044 45.4957 259.349 48.7669C258.66 52.0382 252.184 55.479 254.043 58.8159C255.897 62.1528 262.535 53.105 265.403 53.8216C268.27 54.5382 270.923 62.4702 274.613 61.0424C278.309 59.6201 271.393 52.3773 273.183 49.2155C274.978 46.0536 283.766 44.7627 282.735 42.2463C281.704 39.7354 272.754 43.6686 271.288 41.5461C270.228 40.0144 270.611 29.9763 268.479 30.321Z" fill="#5691CB"/>
<path d="M265.061 53.1377C265.241 53.1377 265.409 53.1541 265.577 53.1978C266.996 53.5534 268.201 55.1453 269.475 56.8356C271.352 59.3301 272.806 61.0478 274.359 60.4461C274.747 60.2929 274.874 60.0905 274.938 59.9483C275.326 59.0676 274.521 57.2459 273.739 55.4845C272.685 53.1049 271.596 50.6432 272.58 48.9091C273.53 47.2351 275.963 46.1411 278.321 45.0853C280.238 44.2264 282.411 43.2527 282.098 42.4814C281.768 41.6773 279.039 42.1094 277.047 42.4267C274.278 42.8643 271.671 43.2801 270.715 41.8961C270.234 41.1959 270.049 39.5877 269.788 37.0221C269.585 35.0473 269.215 31.393 268.56 30.9609C266.932 31.2508 266.301 33.4499 265.623 35.7802C265.096 37.6073 264.551 39.4891 263.433 40.7036C261.835 42.4377 259.332 41.2123 257.131 40.1346C255.266 39.2265 253.342 38.2857 252.276 39.1172C252.074 39.2758 252.045 39.3962 252.045 39.4892C252.045 40.2988 253.968 41.825 255.515 43.0558C257.93 44.9704 260.433 46.9508 260.021 48.8927C259.709 50.3861 258.388 51.8357 257.113 53.2361C255.387 55.1288 253.759 56.9231 254.646 58.515C254.814 58.8104 254.976 58.876 255.098 58.8979C256.036 59.0675 258.069 57.4647 259.703 56.1737C261.672 54.6147 263.538 53.1377 265.061 53.1377ZM273.71 61.8683C271.59 61.8683 269.887 59.6145 268.357 57.585C267.28 56.1573 266.168 54.6804 265.223 54.4451C264.314 54.2154 262.24 55.851 260.583 57.1638C258.44 58.8597 256.418 60.468 254.831 60.1671C254.42 60.0905 253.84 59.8443 253.435 59.1167C252.12 56.7426 254.217 54.4342 256.077 52.3938C257.235 51.1192 258.434 49.8007 258.678 48.641C258.932 47.4485 256.546 45.5612 254.634 44.0459C252.508 42.3556 250.672 40.9006 250.678 39.4837C250.678 39.1227 250.805 38.592 251.402 38.127C253.163 36.743 255.607 37.9355 257.756 38.9858C260.021 40.0963 261.568 40.7528 262.402 39.8557C263.312 38.8655 263.816 37.126 264.302 35.4411C265.067 32.8099 265.849 30.0856 268.363 29.6808C268.728 29.6261 269.076 29.7082 269.377 29.927C270.449 30.6983 270.761 33.0779 271.149 36.8962C271.323 38.603 271.538 40.7255 271.862 41.1904C272.325 41.8633 274.921 41.4531 276.815 41.1522C279.81 40.6763 282.642 40.2276 283.372 42.0164C284.149 43.9037 281.6 45.047 278.906 46.256C276.855 47.175 274.527 48.2199 273.785 49.5218C273.113 50.7089 274.115 52.979 275.002 54.9866C275.934 57.0818 276.809 59.0621 276.201 60.4461C275.963 60.9931 275.511 61.3979 274.874 61.6441C274.475 61.7973 274.081 61.8683 273.71 61.8683Z" fill="#8CD2DA"/>
<defs>
<filter id="filter0_i_325_324" x="7" y="37.4714" width="277.34" height="155.464" filterUnits="userSpaceOnUse" color-interpolation-filters="sRGB">
<feFlood flood-opacity="0" result="BackgroundImageFix"/>
<feBlend mode="normal" in="SourceGraphic" in2="BackgroundImageFix" result="shape"/>
<feColorMatrix in="SourceAlpha" type="matrix" values="0 0 0 0 0 0 0 0 0 0 0 0 0 0 0 0 0 0 127 0" result="hardAlpha"/>
<feMorphology radius="1.94195" operator="dilate" in="SourceAlpha" result="effect1_innerShadow_325_324"/>
<feOffset dx="6.38068" dy="6.93553"/>
<feGaussianBlur stdDeviation="4.71616"/>
<feComposite in2="hardAlpha" operator="arithmetic" k2="-1" k3="1"/>
<feColorMatrix type="matrix" values="0 0 0 0 0 0 0 0 0 0 0 0 0 0 0 0 0 0 1 0"/>
<feBlend mode="normal" in2="shape" result="effect1_innerShadow_325_324"/>
</filter>
<filter id="filter1_f_325_324" x="0.896737" y="31.3682" width="283.166" height="160.735" filterUnits="userSpaceOnUse" color-interpolation-filters="sRGB">
<feFlood flood-opacity="0" result="BackgroundImageFix"/>
<feBlend mode="normal" in="SourceGraphic" in2="BackgroundImageFix" result="shape"/>
<feGaussianBlur stdDeviation="3.05163" result="effect1_foregroundBlur_325_324"/>
</filter>
<filter id="filter2_d_325_324" x="3" y="37.4714" width="278.96" height="156.529" filterUnits="userSpaceOnUse" color-interpolation-filters="sRGB">
<feFlood flood-opacity="0" result="BackgroundImageFix"/>
<feColorMatrix in="SourceAlpha" type="matrix" values="0 0 0 0 0 0 0 0 0 0 0 0 0 0 0 0 0 0 127 0" result="hardAlpha"/>
<feOffset dy="4"/>
<feGaussianBlur stdDeviation="2"/>
<feComposite in2="hardAlpha" operator="out"/>
<feColorMatrix type="matrix" values="0 0 0 0 0 0 0 0 0 0 0 0 0 0 0 0 0 0 0.25 0"/>
<feBlend mode="normal" in2="BackgroundImageFix" result="effect1_dropShadow_325_324"/>
<feBlend mode="normal" in="SourceGraphic" in2="effect1_dropShadow_325_324" result="shape"/>
</filter>
<filter id="filter3_d_325_324" x="100.233" y="0.522892" width="84.833" height="76.2563" filterUnits="userSpaceOnUse" color-interpolation-filters="sRGB">
<feFlood flood-opacity="0" result="BackgroundImageFix"/>
<feColorMatrix in="SourceAlpha" type="matrix" values="0 0 0 0 0 0 0 0 0 0 0 0 0 0 0 0 0 0 127 0" result="hardAlpha"/>
<feOffset dy="1.10968"/>
<feGaussianBlur stdDeviation="4.16132"/>
<feComposite in2="hardAlpha" operator="out"/>
<feColorMatrix type="matrix" values="0 0 0 0 0 0 0 0 0 0 0 0 0 0 0 0 0 0 0.4 0"/>
<feBlend mode="normal" in2="BackgroundImageFix" result="effect1_dropShadow_325_324"/>
<feBlend mode="normal" in="SourceGraphic" in2="effect1_dropShadow_325_324" result="shape"/>
</filter>
<filter id="filter4_i_325_324" x="139.232" y="44.5399" width="11.2483" height="15.1192" filterUnits="userSpaceOnUse" color-interpolation-filters="sRGB">
<feFlood flood-opacity="0" result="BackgroundImageFix"/>
<feBlend mode="normal" in="SourceGraphic" in2="BackgroundImageFix" result="shape"/>
<feColorMatrix in="SourceAlpha" type="matrix" values="0 0 0 0 0 0 0 0 0 0 0 0 0 0 0 0 0 0 127 0" result="hardAlpha"/>
<feOffset dy="2.11332"/>
<feGaussianBlur stdDeviation="1.05666"/>
<feComposite in2="hardAlpha" operator="arithmetic" k2="-1" k3="1"/>
<feColorMatrix type="matrix" values="0 0 0 0 0 0 0 0 0 0 0 0 0 0 0 0 0 0 0.25 0"/>
<feBlend mode="normal" in2="shape" result="effect1_innerShadow_325_324"/>
</filter>
<filter id="filter5_i_325_324" x="116.111" y="43.4863" width="7.75867" height="14.6737" filterUnits="userSpaceOnUse" color-interpolation-filters="sRGB">
<feFlood flood-opacity="0" result="BackgroundImageFix"/>
<feBlend mode="normal" in="SourceGraphic" in2="BackgroundImageFix" result="shape"/>
<feColorMatrix in="SourceAlpha" type="matrix" values="0 0 0 0 0 0 0 0 0 0 0 0 0 0 0 0 0 0 127 0" result="hardAlpha"/>
<feOffset dy="2.11332"/>
<feGaussianBlur stdDeviation="1.05666"/>
<feComposite in2="hardAlpha" operator="arithmetic" k2="-1" k3="1"/>
<feColorMatrix type="matrix" values="0 0 0 0 0 0 0 0 0 0 0 0 0 0 0 0 0 0 0.25 0"/>
<feBlend mode="normal" in2="shape" result="effect1_innerShadow_325_324"/>
</filter>
<filter id="filter6_i_325_324" x="110.065" y="33.3142" width="11.8083" height="25.9872" filterUnits="userSpaceOnUse" color-interpolation-filters="sRGB">
<feFlood flood-opacity="0" result="BackgroundImageFix"/>
<feBlend mode="normal" in="SourceGraphic" in2="BackgroundImageFix" result="shape"/>
<feColorMatrix in="SourceAlpha" type="matrix" values="0 0 0 0 0 0 0 0 0 0 0 0 0 0 0 0 0 0 127 0" result="hardAlpha"/>
<feOffset dy="2.11332"/>
<feGaussianBlur stdDeviation="1.05666"/>
<feComposite in2="hardAlpha" operator="arithmetic" k2="-1" k3="1"/>
<feColorMatrix type="matrix" values="0 0 0 0 0 0 0 0 0 0 0 0 0 0 0 0 0 0 0.25 0"/>
<feBlend mode="normal" in2="shape" result="effect1_innerShadow_325_324"/>
</filter>
<linearGradient id="paint0_linear_325_324" x1="139.636" y1="28.4434" x2="147.349" y2="67.2781" gradientUnits="userSpaceOnUse">
<stop offset="0.276042" stop-color="#B5E0F3"/>
<stop offset="1" stop-color="#E0F2F9"/>
</linearGradient>
<linearGradient id="paint1_linear_325_324" x1="143.915" y1="52.0464" x2="145.852" y2="63.7925" gradientUnits="userSpaceOnUse">
<stop stop-color="#67A7DE"/>
<stop offset="1" stop-color="#9ED9EE"/>
</linearGradient>
<linearGradient id="paint2_linear_325_324" x1="116.068" y1="32.8455" x2="113.343" y2="56.3585" gradientUnits="userSpaceOnUse">
<stop stop-color="#394C86"/>
<stop offset="0.463211" stop-color="#606C89"/>
<stop offset="1" stop-color="#2F3967"/>
</linearGradient>
<linearGradient id="paint3_linear_325_324" x1="163.181" y1="34.4791" x2="163.181" y2="61.6968" gradientUnits="userSpaceOnUse">
<stop stop-color="#32406C"/>
<stop offset="0.498722" stop-color="#5D6988"/>
<stop offset="1" stop-color="#2F3967"/>
</linearGradient>
<linearGradient id="paint4_linear_325_324" x1="127.723" y1="9.32977" x2="127.723" y2="16.6093" gradientUnits="userSpaceOnUse">
<stop stop-color="#B8E9FF"/>
<stop offset="0.440708" stop-color="#C2EBFD" stop-opacity="0.559292"/>
<stop offset="1" stop-color="#ADE6FF"/>
</linearGradient>
<linearGradient id="paint5_linear_325_324" x1="155.527" y1="15.2481" x2="157.777" y2="17.2334" gradientUnits="userSpaceOnUse">
<stop stop-color="#EEECEC"/>
<stop offset="1" stop-color="#FDFCF3"/>
</linearGradient>
<linearGradient id="paint6_linear_325_324" x1="155.232" y1="8.40039" x2="155.232" y2="16.9785" gradientUnits="userSpaceOnUse">
<stop stop-color="#C5EBFD"/>
<stop offset="0.521143" stop-color="#D1F1FF" stop-opacity="0.74"/>
<stop offset="1" stop-color="#BBE9FD"/>
</linearGradient>
</defs>
</svg>
